<svg width="20" height="25" viewBox="0 0 20 25" fill="none" xmlns="http://www.w3.org/2000/svg">
<path d="M9.52314 13.9143C11.9506 13.9143 13.9184 11.9465 13.9184 9.51905C13.9184 7.09164 11.9506 5.12384 9.52314 5.12384C7.09573 5.12384 5.12793 7.09164 5.12793 9.51905C5.12793 11.9465 7.09573 13.9143 9.52314 13.9143Z" fill="white"/>
<path d="M18.0038 7.74426C17.7055 7.52249 17.6089 7.15266 17.7555 6.80642C18.1755 5.83351 18.0009 5.16036 17.7691 4.74613C17.4279 4.17813 16.8213 3.84834 15.9857 3.76678C15.6015 3.71956 15.3225 3.44056 15.2775 3.07429C15.1938 2.22084 14.864 1.61425 14.2753 1.26083C13.8825 1.04048 13.2065 0.865942 12.2414 1.28442C11.8895 1.43107 11.5189 1.33662 11.2936 1.03262C10.2491 -0.342302 8.80126 -0.348015 7.74822 1.03833C7.52719 1.33662 7.15731 1.43322 6.81038 1.28656C5.83889 0.867359 5.16432 1.04048 4.7501 1.27299C4.18209 1.6142 3.85231 2.22084 3.77075 3.05642C3.72353 3.44056 3.44453 3.71956 3.07826 3.76463C2.22481 3.84834 1.61822 4.17813 1.2648 4.76684C1.04518 5.16031 0.870642 5.83346 1.28838 6.80134C1.43719 7.15256 1.34059 7.52244 1.03659 7.7485C0.349126 8.2707 0 8.86591 0 9.51904C0 10.1722 0.349078 10.7674 1.0423 11.2939C1.34059 11.5156 1.43719 11.8855 1.29053 12.2317C0.870594 13.2046 1.04518 13.8778 1.27696 14.292C1.61817 14.86 2.22481 15.1898 3.06039 15.2714C3.44453 15.3186 3.72353 15.5976 3.7686 15.9638C3.85231 16.8173 4.18209 17.4239 4.77081 17.7773C5.16354 17.9977 5.83743 18.1715 6.8053 17.7537C7.16083 17.6049 7.52709 17.7029 7.75247 18.0055C8.27467 18.693 8.86988 19.0421 9.52301 19.0421C10.1761 19.0421 10.7713 18.693 11.2978 17.9998C11.5196 17.7015 11.888 17.6071 12.2357 17.7516C13.2086 18.1715 13.8825 17.9969 14.296 17.7651C14.864 17.4239 15.1938 16.8173 15.2753 15.9817C15.3225 15.5976 15.6015 15.3186 15.9678 15.2735C16.8213 15.1898 17.4278 14.86 17.7813 14.2713C18.0009 13.8778 18.1754 13.2047 17.7577 12.2368C17.6089 11.8856 17.7055 11.5157 18.0095 11.2896C18.6969 10.7674 19.0461 10.1722 19.0461 9.51909C19.0461 8.86596 18.6969 8.27075 18.0038 7.74426ZM9.5231 15.3793C6.29179 15.3793 3.66282 12.7504 3.66282 9.51904C3.66282 6.28773 6.29179 3.65876 9.5231 3.65876C12.7544 3.65876 15.3834 6.28773 15.3834 9.51904C15.3834 12.7504 12.7544 15.3793 9.5231 15.3793Z" fill="white"/>
<path d="M6.90855 19.3751C6.49936 19.5045 6.08948 19.5704 5.68957 19.5704C5.10725 19.5711 4.54139 19.4259 4.05426 19.1526C3.80666 19.0043 3.54939 18.7886 3.30438 18.5285L1.60197 20.9116C1.44243 21.1348 1.42099 21.4281 1.54615 21.6728C1.67205 21.9167 1.92311 22.0698 2.19786 22.0698H4.6752L5.9378 24.5951C6.06228 24.8433 6.31549 24.9999 6.59308 24.9999C6.87066 24.9999 7.12387 24.8433 7.24835 24.5951L9.2554 20.581C8.58293 20.5279 7.72728 20.2627 6.90855 19.3751Z" fill="white"/>
<path d="M15.7474 18.536C15.5164 18.7796 15.2767 18.9831 15.0509 19.119C14.5058 19.4252 13.947 19.5689 13.3519 19.5689C12.9562 19.5689 12.5492 19.5038 12.1364 19.3744C11.3131 20.2628 10.4606 20.5279 9.79102 20.581L11.7981 24.5951C11.9225 24.8433 12.1758 25 12.4533 25C12.7309 25 12.9841 24.8433 13.1086 24.5951L14.3712 22.0699H16.8485C17.1232 22.0699 17.3744 21.9168 17.5003 21.6728C17.6254 21.4282 17.604 21.1349 17.4444 20.9117L15.7474 18.536Z" fill="white"/>
</svg>
